# Blender v2.69 (sub 0) OBJ File: ''
# www.blender.org
o Cube_Cube.002
v -1.000000 -1.000000 1.000000
v -1.000000 -1.000000 -1.000000
v 1.000000 -1.000000 -1.000000
v 1.000000 -1.000000 1.000000
v -1.000000 1.000000 1.000000
v -1.000000 1.000000 -1.000000
v 1.000000 1.000000 -1.000000
v 1.000000 1.000000 1.000000
v -0.411469 0.589968 0.411469
v -0.411469 0.589968 -0.411469
v 0.411469 0.589968 -0.411469
v 0.411469 0.589968 0.411469
vn -1.000000 0.000000 0.000000
vn 0.000000 0.000000 -1.000000
vn 1.000000 0.000000 0.000000
vn 0.000000 0.000000 1.000000
vn 0.000000 -1.000000 0.000000
vn 0.000000 0.820500 -0.571646
vn 0.000000 1.000000 0.000000
vn -0.571646 0.820500 0.000000
vn 0.000000 0.820500 0.571646
vn 0.571646 0.820500 0.000000
s off
f 5//1 6//1 2//1 1//1
f 6//2 7//2 3//2 2//2
f 7//3 8//3 4//3 3//3
f 8//4 5//4 1//4 4//4
f 1//5 2//5 3//5 4//5
f 5//6 8//6 12//6 9//6
f 12//7 11//7 10//7 9//7
f 8//8 7//8 11//8 12//8
f 7//9 6//9 10//9 11//9
f 6//10 5//10 9//10 10//10
